<svg xmlns="http://www.w3.org/2000/svg" xmlns:xlink="http://www.w3.org/1999/xlink" viewBox="0 0 128 128">
  <defs>
    <linearGradient id="g" x1="-.828%" x2="57.636%" y1="7.652%" y2="78.411%">
      <stop offset="0%" stop-color="#41D1FF"/>
      <stop offset="100%" stop-color="#BD34FE"/>
    </linearGradient>
    <linearGradient id="a" x1="43.376%" x2="50.316%" y1="2.242%" y2="89.03%">
      <stop offset="0%" stop-color="#FFEA83"/>
      <stop offset="8.333%" stop-color="#FFDD35"/>
      <stop offset="100%" stop-color="#FFA800"/>
    </linearGradient>
  </defs>
  <path fill="url(#g)" d="M127.17 70.383l-46.342 56.632c-3.856 4.71-12.36 4.173-15.395-1.009l-11.623-20.159a2.586 2.586 0 0 1 1.331-3.49l24.159-9.235c1.504-.575 3.158.398 3.247 1.987l.744 13.298a2.89 2.89 0 0 0 4.913 1.755l16.028-18.367a2.88 2.88 0 0 0-.757-4.58l-15.82-7.699a3.21 3.21 0 0 1-1.66-1.885l-4.026-13.37a3.21 3.21 0 0 1 1.803-3.682l31.192-13.612a3.21 3.21 0 0 1 4.196 1.952l7.112 15.832c.894 1.99.242 4.4-1.606 5.602z"/>
  <path fill="url(#a)" d="M107.357 47.626l-29.216 67.503c-1.79 4.138-7.478 4.107-9.222-.056L.904 48.81a3.117 3.117 0 0 1 1.394-4.35L27.581 33.8a3.117 3.117 0 0 1 3.97 1.755l10.885 24.417c.956 2.144 3.873 2.923 5.686 1.47l37.534-30.04a3.117 3.117 0 0 1 4.647.684l16.488 16.183a3.117 3.117 0 0 1 .566 4.357z"/>
</svg>
